<svg width="28" height="28" viewBox="0 0 28 28" fill="none" xmlns="http://www.w3.org/2000/svg">
<path d="M22.1667 4.66669H5.83333C4.54467 4.66669 3.5 5.71136 3.5 7.00002V23.3334C3.5 24.622 4.54467 25.6667 5.83333 25.6667H22.1667C23.4553 25.6667 24.5 24.622 24.5 23.3334V7.00002C24.5 5.71136 23.4553 4.66669 22.1667 4.66669Z" stroke="#00293B" stroke-width="2" stroke-linecap="round" stroke-linejoin="round"/>
<path d="M18.666 2.33331V6.99998" stroke="#00293B" stroke-width="2" stroke-linecap="round" stroke-linejoin="round"/>
<path d="M9.33398 2.33331V6.99998" stroke="#00293B" stroke-width="2" stroke-linecap="round" stroke-linejoin="round"/>
<path d="M3.5 11.6667H24.5" stroke="#00293B" stroke-width="2" stroke-linecap="round" stroke-linejoin="round"/>
<path d="M14.2793 16.3496C14.2793 16.8848 14.1172 17.3398 13.793 17.7148C13.4688 18.0898 13.0137 18.3477 12.4277 18.4883V18.5234C13.1191 18.6094 13.6426 18.8203 13.998 19.1562C14.3535 19.4883 14.5312 19.9375 14.5312 20.5039C14.5312 21.3281 14.2324 21.9707 13.6348 22.4316C13.0371 22.8887 12.1836 23.1172 11.0742 23.1172C10.1445 23.1172 9.32031 22.9629 8.60156 22.6543V21.1133C8.93359 21.2812 9.29883 21.418 9.69727 21.5234C10.0957 21.6289 10.4902 21.6816 10.8809 21.6816C11.4785 21.6816 11.9199 21.5801 12.2051 21.377C12.4902 21.1738 12.6328 20.8477 12.6328 20.3984C12.6328 19.9961 12.4688 19.7109 12.1406 19.543C11.8125 19.375 11.2891 19.291 10.5703 19.291H9.91992V17.9023H10.582C11.2461 17.9023 11.7305 17.8164 12.0352 17.6445C12.3438 17.4688 12.498 17.1699 12.498 16.748C12.498 16.0996 12.0918 15.7754 11.2793 15.7754C10.998 15.7754 10.7109 15.8223 10.418 15.916C10.1289 16.0098 9.80664 16.1719 9.45117 16.4023L8.61328 15.1543C9.39453 14.5918 10.3262 14.3105 11.4082 14.3105C12.2949 14.3105 12.9941 14.4902 13.5059 14.8496C14.0215 15.209 14.2793 15.709 14.2793 16.3496ZM21.4219 18.7168C21.4219 20.2129 21.1758 21.3203 20.6836 22.0391C20.1953 22.7578 19.4414 23.1172 18.4219 23.1172C17.4336 23.1172 16.6875 22.7461 16.1836 22.0039C15.6836 21.2617 15.4336 20.166 15.4336 18.7168C15.4336 17.2051 15.6777 16.0918 16.166 15.377C16.6543 14.6582 17.4062 14.2988 18.4219 14.2988C19.4102 14.2988 20.1562 14.6738 20.6602 15.4238C21.168 16.1738 21.4219 17.2715 21.4219 18.7168ZM17.2324 18.7168C17.2324 19.7676 17.3223 20.5215 17.502 20.9785C17.6855 21.4316 17.9922 21.6582 18.4219 21.6582C18.8438 21.6582 19.1484 21.4277 19.3359 20.9668C19.5234 20.5059 19.6172 19.7559 19.6172 18.7168C19.6172 17.666 19.5215 16.9121 19.3301 16.4551C19.1426 15.9941 18.8398 15.7637 18.4219 15.7637C17.9961 15.7637 17.6914 15.9941 17.5078 16.4551C17.3242 16.9121 17.2324 17.666 17.2324 18.7168Z" fill="#00293B"/>
</svg>
