<svg width="20" height="20" viewBox="0 0 20 20" fill="none" xmlns="http://www.w3.org/2000/svg">
<path d="M18.3333 10H1.66663" stroke="#00293B" stroke-width="1.5" stroke-linecap="round" stroke-linejoin="round"/>
<path d="M4.54163 4.25837L1.66663 10V15C1.66663 15.4421 1.84222 15.866 2.15478 16.1785C2.46734 16.4911 2.89127 16.6667 3.33329 16.6667H16.6666C17.1087 16.6667 17.5326 16.4911 17.8451 16.1785C18.1577 15.866 18.3333 15.4421 18.3333 15V10L15.4583 4.25837C15.3203 3.9807 15.1076 3.74702 14.8441 3.58361C14.5806 3.4202 14.2767 3.33354 13.9666 3.33337H6.03329C5.72322 3.33354 5.41935 3.4202 5.15583 3.58361C4.89231 3.74702 4.67961 3.9807 4.54163 4.25837V4.25837Z" stroke="#00293B" stroke-width="1.5" stroke-linecap="round" stroke-linejoin="round"/>
<path d="M5 13.3334H5.00833" stroke="#00293B" stroke-width="1.5" stroke-linecap="round" stroke-linejoin="round"/>
<path d="M8.33337 13.3334H8.34171" stroke="#00293B" stroke-width="1.5" stroke-linecap="round" stroke-linejoin="round"/>
</svg>
