<svg width="16" height="18" viewBox="0 0 16 18" fill="none" xmlns="http://www.w3.org/2000/svg">
<path d="M13.8667 2.11766C13.4283 2.11766 13.0197 2.25003 12.6805 2.47556C12.3883 1.65181 11.5957 1.05886 10.6667 1.05886C10.2283 1.05886 9.81972 1.19123 9.48052 1.41675C9.18827 0.592957 8.39572 0 7.46668 0C6.53763 0 5.74508 0.592957 5.45283 1.4167C5.11363 1.19118 4.70509 1.05881 4.26669 1.05881C3.09014 1.05881 2.13334 2.00857 2.13334 3.17647V5.60433L1.09335 6.63564C0.388299 7.3366 0 8.26621 0 9.25623V10.8603C0 11.8504 0.388249 12.7811 1.09335 13.482L3.22774 15.5996C4.78614 17.1476 6.86078 18 9.06667 18C12.8896 18 16 14.9125 16 11.1176V4.23527C16 3.06743 15.0432 2.11766 13.8667 2.11766ZM14.9333 11.1176C14.9333 14.329 12.3008 16.9411 9.06557 16.9411C7.14453 16.9411 5.33863 16.1989 3.98184 14.851L1.84744 12.7334C1.344 12.2325 1.06665 11.5676 1.06665 10.8614V9.25727C1.06665 8.54996 1.344 7.88504 1.84744 7.38529L2.13334 7.10154V7.94117C2.13334 8.2334 2.37229 8.4706 2.66669 8.4706C2.96109 8.4706 3.19999 8.2334 3.19999 7.94117V5.8246C3.19999 5.82356 3.19999 5.82356 3.19999 5.82246V3.17647C3.19999 2.59304 3.67784 2.11766 4.26664 2.11766C4.85543 2.11766 5.33333 2.59304 5.33333 3.17647V4.7647C5.33333 5.05694 5.57228 5.29413 5.86668 5.29413C6.16108 5.29413 6.40003 5.05694 6.40003 4.7647V2.11766C6.40003 1.53423 6.87788 1.05886 7.46668 1.05886C8.05548 1.05886 8.53332 1.53423 8.53332 2.11766V4.7647C8.53332 5.05694 8.77227 5.29413 9.06667 5.29413C9.36107 5.29413 9.60002 5.05694 9.60002 4.7647V3.17647C9.60002 2.59304 10.0779 2.11766 10.6667 2.11766C11.2555 2.11766 11.7333 2.59304 11.7333 3.17647V4.7647C11.7333 5.05694 11.9723 5.29413 12.2667 5.29413C12.5611 5.29413 12.8 5.05694 12.8 4.7647V4.23527C12.8 3.65185 13.2779 3.17647 13.8667 3.17647C14.4555 3.17647 14.9333 3.6519 14.9333 4.23527V11.1176Z" fill="#00293B"/>
</svg>
