<svg width="14" height="14" viewBox="0 0 14 14" fill="none" xmlns="http://www.w3.org/2000/svg">
<path d="M6.6501 2.8H3.11121C2.84305 2.8 2.58587 2.90653 2.39625 3.09615C2.20663 3.28577 2.1001 3.54295 2.1001 3.81111V10.8889C2.1001 11.1571 2.20663 11.4142 2.39625 11.6039C2.58587 11.7935 2.84305 11.9 3.11121 11.9H10.189C10.4571 11.9 10.7143 11.7935 10.9039 11.6039C11.0936 11.4142 11.2001 11.1571 11.2001 10.8889V7.35" stroke="#00293B" stroke-linecap="round" stroke-linejoin="round"/>
<path d="M10.1048 2.40799C10.302 2.21079 10.5695 2.1 10.8484 2.1C11.1272 2.1 11.3947 2.21079 11.5919 2.40799C11.7891 2.60519 11.8999 2.87266 11.8999 3.15155C11.8999 3.43043 11.7891 3.6979 11.5919 3.8951L6.88272 8.60429L4.8999 9.1L5.39561 7.11718L10.1048 2.40799Z" stroke="#00293B" stroke-linecap="round" stroke-linejoin="round"/>
</svg>
