<svg width="18" height="18" viewBox="0 0 18 18" fill="none" xmlns="http://www.w3.org/2000/svg">
<path d="M16.4994 9.65833C16.3683 11.0768 15.836 12.4287 14.9646 13.5557C14.0933 14.6826 12.919 15.5382 11.5792 16.0221C10.2394 16.5061 8.78942 16.5984 7.39901 16.2884C6.00861 15.9784 4.73526 15.2788 3.72795 14.2715C2.72064 13.2642 2.02105 11.9908 1.71102 10.6004C1.40099 9.21001 1.49336 7.76007 1.97731 6.42025C2.46127 5.08042 3.31679 3.90614 4.44377 3.03479C5.57076 2.16345 6.92259 1.63109 8.3411 1.5C7.51061 2.62356 7.11097 4.00787 7.21487 5.40118C7.31878 6.79448 7.91931 8.10422 8.90726 9.09217C9.89521 10.0801 11.2049 10.6807 12.5983 10.7846C13.9916 10.8885 15.3759 10.4888 16.4994 9.65833V9.65833Z" stroke="#00293B" stroke-width="1.5" stroke-linecap="round" stroke-linejoin="round"/>
</svg>
