<?xml version="1.0" standalone="no"?>
<!DOCTYPE svg PUBLIC "-//W3C//DTD SVG 20010904//EN"
 "http://www.w3.org/TR/2001/REC-SVG-20010904/DTD/svg10.dtd">
<svg version="1.0" xmlns="http://www.w3.org/2000/svg"
 width="96.000000pt" height="96.000000pt" viewBox="0 0 96.000000 96.000000"
 preserveAspectRatio="xMidYMid meet">

<g transform="translate(0.000000,96.000000) scale(0.100000,-0.100000)"
fill="#000000" stroke="none">
<path d="M40 720 l0 -80 120 0 120 0 0 80 0 80 -120 0 -120 0 0 -80z"/>
<path d="M360 720 l0 -80 120 0 120 0 0 80 0 80 -120 0 -120 0 0 -80z"/>
<path d="M680 720 l0 -80 120 0 120 0 0 80 0 80 -120 0 -120 0 0 -80z"/>
<path d="M40 480 l0 -80 120 0 120 0 0 80 0 80 -120 0 -120 0 0 -80z"/>
<path d="M360 480 l0 -80 120 0 120 0 0 80 0 80 -120 0 -120 0 0 -80z"/>
<path d="M680 480 l0 -80 120 0 120 0 0 80 0 80 -120 0 -120 0 0 -80z"/>
<path d="M40 240 l0 -80 120 0 120 0 0 80 0 80 -120 0 -120 0 0 -80z"/>
<path d="M360 240 l0 -80 100 0 100 0 0 80 0 80 -100 0 -100 0 0 -80z"/>
<path d="M680 300 c0 -13 -7 -20 -20 -20 -17 0 -20 -7 -20 -40 0 -33 3 -40 20
-40 17 0 20 -7 20 -40 0 -33 -3 -40 -20 -40 -17 0 -20 -7 -20 -40 0 -33 3 -40
20 -40 13 0 20 -7 20 -20 0 -17 7 -20 40 -20 33 0 40 3 40 20 0 17 7 20 40 20
33 0 40 -3 40 -20 0 -17 7 -20 40 -20 33 0 40 3 40 20 0 13 7 20 20 20 17 0
20 7 20 40 0 33 -3 40 -20 40 -17 0 -20 7 -20 40 0 33 3 40 20 40 17 0 20 7
20 40 0 33 -3 40 -20 40 -13 0 -20 7 -20 20 0 17 -7 20 -40 20 -33 0 -40 -3
-40 -20 0 -17 -7 -20 -40 -20 -33 0 -40 3 -40 20 0 17 -7 20 -40 20 -33 0 -40
-3 -40 -20z m160 -140 l0 -40 -40 0 -40 0 0 40 0 40 40 0 40 0 0 -40z"/>
</g>
</svg>
