<svg width="20" height="18" viewBox="0 0 20 18" fill="none" xmlns="http://www.w3.org/2000/svg">
<path d="M17.6562 0.953125H2.34375C1.05141 0.953125 0 2.00453 0 3.29688V14.7031C0 15.9955 1.05141 17.0469 2.34375 17.0469H17.6562C18.9486 17.0469 20 15.9955 20 14.7031V3.29688C20 2.00453 18.9486 0.953125 17.6562 0.953125ZM6.09375 15.4844H2.34375C1.91297 15.4844 1.5625 15.1339 1.5625 14.7031V12.2812H6.09375V15.4844ZM6.09375 10.7188H1.5625V7.28125H6.09375V10.7188ZM6.09375 5.71875H1.5625V3.29688C1.5625 2.86609 1.91297 2.51562 2.34375 2.51562H6.09375V5.71875ZM12.3828 15.4844H7.65625V12.2812H12.3828V15.4844ZM12.3828 10.7188H7.65625V7.28125H12.3828V10.7188ZM12.3828 5.71875H7.65625V2.51562H12.3828V5.71875ZM18.4375 14.7031C18.4375 15.1339 18.087 15.4844 17.6562 15.4844H13.9453V12.2812H18.4375V14.7031ZM18.4375 10.7188H13.9453V7.28125H18.4375V10.7188ZM18.4375 5.71875H13.9453V2.51562H17.6562C18.087 2.51562 18.4375 2.86609 18.4375 3.29688V5.71875Z" fill="white"/>
</svg>
