<?xml version="1.0" encoding="UTF-8"?>
<svg xmlns="http://www.w3.org/2000/svg" xmlns:xlink="http://www.w3.org/1999/xlink" width="600px" height="600px" viewBox="0 0 600 600" version="1.1">
<g id="surface1">
<path style=" stroke:none;fill-rule:nonzero;fill:rgb(10.196078%,52.941176%,84.313725%);fill-opacity:1;" d="M 284.023438 144.375 C 250.574219 150.675781 224.324219 175.125 215.398438 208.351562 C 213.523438 215.398438 213.449219 216.375 213.148438 243.074219 L 212.851562 270.523438 L 209.023438 271.425781 C 199.875 273.449219 191.773438 279.148438 186.523438 287.101562 C 179.925781 296.925781 180.375 291.976562 180.148438 359.25 C 180 416.925781 180 419.023438 181.425781 423.75 C 185.398438 436.648438 196.800781 447.226562 209.851562 449.925781 C 215.398438 451.050781 383.101562 451.050781 388.648438 449.925781 C 401.699219 447.226562 413.101562 436.648438 417.074219 423.75 C 418.5 419.023438 418.5 416.925781 418.351562 359.25 C 418.125 291.976562 418.574219 296.925781 411.976562 287.101562 C 406.726562 279.074219 398.625 273.449219 389.476562 271.425781 L 385.5 270.523438 L 385.5 246 C 385.5 219.601562 384.976562 213.976562 381.375 202.726562 C 375.75 184.949219 362.925781 168.226562 346.648438 157.5 C 337.875 151.648438 330.601562 148.425781 320.324219 145.726562 C 311.101562 143.324219 293.175781 142.648438 284.023438 144.375 Z M 317.398438 159.601562 C 329.625 162.898438 341.101562 169.574219 350.101562 178.648438 C 359.324219 187.949219 365.550781 198.675781 369.074219 211.125 C 370.648438 216.75 370.800781 218.925781 371.101562 243.523438 L 371.398438 270 L 360 270 L 360 246.824219 C 360 221.550781 359.476562 216.375 355.800781 207.300781 C 349.949219 192.523438 337.949219 180 324 173.851562 C 315.75 170.175781 310.125 169.125 299.25 169.125 C 288.375 169.125 282.75 170.175781 274.5 173.851562 C 260.550781 180 248.550781 192.523438 242.699219 207.300781 C 239.023438 216.375 238.5 221.550781 238.5 246.824219 L 238.5 270 L 227.101562 270 L 227.398438 243.523438 C 227.699219 218.925781 227.851562 216.75 229.425781 211.125 C 236.851562 184.648438 257.773438 164.699219 284.25 158.925781 C 292.875 157.050781 309 157.351562 317.398438 159.601562 Z M 311.25 184.574219 C 319.800781 186.898438 325.125 190.125 331.875 196.875 C 338.773438 203.773438 342.074219 209.324219 344.25 217.949219 C 345.601562 223.125 345.75 226.273438 345.75 246.898438 L 345.75 270 L 252.75 270 L 252.75 246.898438 C 252.75 221.101562 253.125 218.101562 257.773438 208.5 C 261.148438 201.449219 270.226562 192.074219 277.273438 188.398438 C 287.476562 183.074219 300.523438 181.574219 311.25 184.574219 Z M 390.148438 286.648438 C 395.773438 289.273438 400.726562 294.449219 402.75 299.699219 C 404.25 303.824219 404.25 304.726562 404.101562 361.800781 L 403.875 419.625 L 401.851562 423.449219 C 399.449219 427.949219 394.875 432.300781 390.074219 434.550781 L 386.625 436.125 L 300.226562 436.351562 C 214.726562 436.5 213.824219 436.5 209.773438 435 C 204.523438 433.050781 199.273438 428.398438 196.648438 423.449219 L 194.625 419.625 L 194.398438 361.800781 C 194.25 304.726562 194.25 303.824219 195.75 299.699219 C 198.523438 292.425781 205.875 286.351562 213.675781 285 C 215.550781 284.699219 255.074219 284.476562 301.5 284.550781 L 385.875 284.625 Z M 390.148438 286.648438 "/>
<path style="fill-rule:nonzero;fill:rgb(10.196078%,52.941176%,84.313725%);fill-opacity:1;stroke-width:1;stroke-linecap:butt;stroke-linejoin:miter;stroke:rgb(0%,0%,0%);stroke-opacity:1;stroke-miterlimit:4;" d="M 378.901042 432 L 375.901042 434.901042 L 376.197917 481.302083 C 376.5 525.401042 376.598958 527.901042 378.401042 529.901042 C 380.197917 531.901042 381.197917 532 403 532 C 424.802083 532 425.802083 531.901042 427.598958 529.901042 C 429.401042 527.901042 429.5 525.401042 429.802083 481.302083 L 430.098958 434.901042 L 427.098958 432 L 424.197917 429 L 381.802083 429 Z M 414 480.697917 L 414 517 L 392 517 L 392 444.5 L 414 444.5 Z M 414 480.697917 " transform="matrix(0.75,0,0,0.75,0,0)"/>
</g>
</svg>
