<svg width="20" height="20" viewBox="0 0 20 20" fill="none" xmlns="http://www.w3.org/2000/svg">
<g clip-path="url(#clip0)">
<path d="M19.1311 6.10352e-05H6.08773C5.72758 6.10352e-05 5.43555 0.292052 5.43555 0.652245V14.1304C5.43555 14.4906 5.72754 14.7826 6.08773 14.7826H19.1311C19.4913 14.7826 19.7833 14.4906 19.7833 14.1304V0.652206C19.7833 0.292051 19.4913 6.10352e-05 19.1311 6.10352e-05ZM18.479 5.21741H16.5225C16.1623 5.21741 15.8703 5.5094 15.8703 5.8696C15.8703 6.22979 16.1623 6.52178 16.5225 6.52178H18.479V13.4783H10.2181V11.5218C10.2181 11.1616 9.92615 10.8696 9.56595 10.8696C9.20576 10.8696 8.91377 11.1616 8.91377 11.5218V13.4783H6.73988V1.30439H8.91377V8.47825C8.91377 8.83841 9.20576 9.13044 9.56595 9.13044C9.92615 9.13044 10.2181 8.83845 10.2181 8.47825V6.52174H13.479C13.8391 6.52174 14.1312 6.22975 14.1312 5.86956C14.1312 5.50936 13.8392 5.21737 13.479 5.21737H10.2181V1.30439H18.4789V5.21741H18.479Z" fill="white"/>
<path d="M19.591 17.5822L18.2868 16.2779C18.0321 16.0232 17.6192 16.0232 17.3645 16.2779C17.1098 16.5326 17.1098 16.9455 17.3645 17.2002L17.5555 17.3913H5.05231L5.24332 17.2002C5.49801 16.9456 5.49801 16.5327 5.24336 16.278C4.98872 16.0233 4.57575 16.0233 4.32106 16.278L3.01685 17.5822C2.76041 17.8384 2.76482 18.253 3.01685 18.5048L4.32106 19.809C4.57571 20.0637 4.98868 20.0638 5.24336 19.809C5.49805 19.5543 5.49805 19.1414 5.24336 18.8867L5.05231 18.6956H17.5554L17.3644 18.8867C17.1097 19.1414 17.1097 19.5543 17.3644 19.809C17.6191 20.0637 18.032 20.0637 18.2867 19.809L19.5909 18.5047C19.8453 18.2507 19.8447 17.8356 19.591 17.5822Z" fill="white"/>
<path d="M3.01652 13.6693L2.82547 13.8603V2.22667L3.01652 2.41768C3.27117 2.67237 3.68413 2.67241 3.93882 2.41768C4.19351 2.16303 4.19355 1.75007 3.93882 1.49538L2.63445 0.191014C2.37981 -0.0636715 1.96684 -0.0636715 1.71215 0.191014L0.407826 1.49534C0.15314 1.74999 0.153101 2.16296 0.407826 2.41764C0.662473 2.67233 1.07544 2.67233 1.33013 2.41764L1.52114 2.22663V13.8602L1.33013 13.6692C1.07548 13.4145 0.662512 13.4145 0.407826 13.6692C0.15314 13.9238 0.153101 14.3368 0.407826 14.5915L1.71215 15.8958C1.9668 16.1505 2.37977 16.1505 2.63445 15.8958L3.93878 14.5915C4.19347 14.3368 4.19351 13.9239 3.93878 13.6692C3.68417 13.4146 3.27121 13.4146 3.01652 13.6693Z" fill="white"/>
</g>
<defs>
<clipPath id="clip0">
<rect width="20" height="20" fill="white"/>
</clipPath>
</defs>
</svg>
