<svg width="20" height="20" viewBox="0 0 20 20" fill="none" xmlns="http://www.w3.org/2000/svg">
<path d="M17.6749 13.2416C17.1448 14.4953 16.3156 15.6001 15.2598 16.4594C14.2041 17.3186 12.9539 17.9061 11.6186 18.1706C10.2833 18.4351 8.90361 18.3684 7.60005 17.9764C6.29649 17.5845 5.10878 16.8792 4.14078 15.9222C3.17277 14.9651 2.45394 13.7856 2.04712 12.4866C1.64031 11.1876 1.5579 9.80868 1.80709 8.47047C2.05629 7.13226 2.62951 5.87547 3.47663 4.80997C4.32376 3.74447 5.419 2.90271 6.6666 2.35828" stroke="#00293B" stroke-width="1.5" stroke-linecap="round" stroke-linejoin="round"/>
<path d="M18.3333 9.99996C18.3333 8.90561 18.1178 7.82198 17.699 6.81093C17.2802 5.79988 16.6664 4.88122 15.8926 4.1074C15.1187 3.33358 14.2001 2.71975 13.189 2.30096C12.178 1.88217 11.0943 1.66663 10 1.66663V9.99996H18.3333Z" stroke="#00293B" stroke-width="1.5" stroke-linecap="round" stroke-linejoin="round"/>
</svg>
