<svg width="19" height="19" viewBox="0 0 19 19" fill="none" xmlns="http://www.w3.org/2000/svg">
<path d="M11.2491 5.25C11.0965 5.40578 11.0109 5.61521 11.0109 5.83334C11.0109 6.05146 11.0965 6.2609 11.2491 6.41667L12.5825 7.75C12.7383 7.90269 12.9477 7.98822 13.1658 7.98822C13.3839 7.98822 13.5934 7.90269 13.7491 7.75L16.8908 4.60834C17.3098 5.53433 17.4367 6.56603 17.2545 7.56596C17.0723 8.56589 16.5897 9.48654 15.871 10.2052C15.1524 10.9239 14.2317 11.4065 13.2318 11.5887C12.2318 11.7709 11.2001 11.644 10.2741 11.225L4.51581 16.9833C4.18429 17.3149 3.73465 17.5011 3.26581 17.5011C2.79697 17.5011 2.34733 17.3149 2.01581 16.9833C1.68429 16.6518 1.49805 16.2022 1.49805 15.7333C1.49805 15.2645 1.68429 14.8149 2.01581 14.4833L7.77415 8.725C7.35512 7.79901 7.22824 6.76731 7.41043 5.76738C7.59262 4.76746 8.07522 3.8468 8.79391 3.1281C9.51261 2.40941 10.4333 1.92681 11.4332 1.74462C12.4331 1.56243 13.4648 1.68931 14.3908 2.10834L11.2575 5.24167L11.2491 5.25Z" stroke="#00293B" stroke-width="1.5" stroke-linecap="round" stroke-linejoin="round"/>
</svg>
