<svg width="14" height="14" viewBox="0 0 14 14" fill="none" xmlns="http://www.w3.org/2000/svg">
<path d="M1.75 3.5H2.91667H12.25" stroke="#00293B" stroke-linecap="round" stroke-linejoin="round"/>
<path d="M4.6665 3.5V2.33333C4.6665 2.02391 4.78942 1.72717 5.00821 1.50837C5.22701 1.28958 5.52375 1.16666 5.83317 1.16666H8.1665C8.47592 1.16666 8.77267 1.28958 8.99146 1.50837C9.21026 1.72717 9.33317 2.02391 9.33317 2.33333V3.5M11.0832 3.5V11.6667C11.0832 11.9761 10.9603 12.2728 10.7415 12.4916C10.5227 12.7104 10.2259 12.8333 9.91651 12.8333H4.08317C3.77375 12.8333 3.47701 12.7104 3.25821 12.4916C3.03942 12.2728 2.9165 11.9761 2.9165 11.6667V3.5H11.0832Z" stroke="#00293B" stroke-linecap="round" stroke-linejoin="round"/>
<path d="M5.8335 6.41666V9.91666" stroke="#00293B" stroke-linecap="round" stroke-linejoin="round"/>
<path d="M8.1665 6.41666V9.91666" stroke="#00293B" stroke-linecap="round" stroke-linejoin="round"/>
</svg>
