<svg width="25" height="18" viewBox="0 0 25 18" fill="none" xmlns="http://www.w3.org/2000/svg">
<path d="M14.334 16.5V14.8333C14.334 13.9493 13.9828 13.1014 13.3577 12.4763C12.7326 11.8512 11.8847 11.5 11.0007 11.5H5.16732C4.28326 11.5 3.43542 11.8512 2.8103 12.4763C2.18517 13.1014 1.83398 13.9493 1.83398 14.8333V16.5" stroke="#4CAF50" stroke-width="2" stroke-linecap="round" stroke-linejoin="round"/>
<path d="M8.08333 8.16667C9.92428 8.16667 11.4167 6.67428 11.4167 4.83333C11.4167 2.99238 9.92428 1.5 8.08333 1.5C6.24238 1.5 4.75 2.99238 4.75 4.83333C4.75 6.67428 6.24238 8.16667 8.08333 8.16667Z" stroke="#4CAF50" stroke-width="2" stroke-linecap="round" stroke-linejoin="round"/>
<path d="M19 10C20.6569 10 22 8.65685 22 7C22 5.34315 20.6569 4 19 4C17.3431 4 16 5.34315 16 7C16 8.65685 17.3431 10 19 10Z" fill="#4CAF50"/>
<path d="M19 1.5V2.5" stroke="#4CAF50" stroke-linecap="round" stroke-linejoin="round"/>
<path d="M19 11.5V12.5" stroke="#4CAF50" stroke-linecap="round" stroke-linejoin="round"/>
<path d="M15.1094 3.11011L15.8194 3.82011" stroke="#4CAF50" stroke-linecap="round" stroke-linejoin="round"/>
<path d="M22.1816 10.1799L22.8916 10.8899" stroke="#4CAF50" stroke-linecap="round" stroke-linejoin="round"/>
<path d="M13.5 7H14.5" stroke="#4CAF50" stroke-linecap="round" stroke-linejoin="round"/>
<path d="M23.5 7H24.5" stroke="#4CAF50" stroke-linecap="round" stroke-linejoin="round"/>
<path d="M15.1094 10.8899L15.8194 10.1799" stroke="#4CAF50" stroke-linecap="round" stroke-linejoin="round"/>
<path d="M22.1816 3.82011L22.8916 3.11011" stroke="#4CAF50" stroke-linecap="round" stroke-linejoin="round"/>
</svg>
