<svg width="25" height="18" viewBox="0 0 25 18" fill="none" xmlns="http://www.w3.org/2000/svg">
<path d="M14.334 16.5V14.8333C14.334 13.9493 13.9828 13.1014 13.3577 12.4763C12.7326 11.8512 11.8847 11.5 11.0007 11.5H5.16732C4.28326 11.5 3.43542 11.8512 2.8103 12.4763C2.18517 13.1014 1.83398 13.9493 1.83398 14.8333V16.5" stroke="#4CAF50" stroke-width="2" stroke-linecap="round" stroke-linejoin="round"/>
<path d="M8.08333 8.16667C9.92428 8.16667 11.4167 6.67428 11.4167 4.83333C11.4167 2.99238 9.92428 1.5 8.08333 1.5C6.24238 1.5 4.75 2.99238 4.75 4.83333C4.75 6.67428 6.24238 8.16667 8.08333 8.16667Z" stroke="#4CAF50" stroke-width="2" stroke-linecap="round" stroke-linejoin="round"/>
<path d="M23.5 7.40541C23.4212 8.25832 23.1011 9.07114 22.5772 9.74877C22.0532 10.4264 21.3472 10.9408 20.5416 11.2318C19.736 11.5228 18.8642 11.5783 18.0281 11.3919C17.1921 11.2055 16.4265 10.7848 15.8208 10.1792C15.2152 9.57351 14.7945 8.80787 14.6081 7.97186C14.4217 7.13584 14.4772 6.26403 14.7682 5.45842C15.0592 4.65282 15.5736 3.94675 16.2512 3.42283C16.9289 2.89892 17.7417 2.57882 18.5946 2.5C18.0952 3.17557 17.8549 4.00792 17.9174 4.84568C17.9799 5.68344 18.341 6.47095 18.935 7.06498C19.529 7.65901 20.3166 8.0201 21.1543 8.08258C21.9921 8.14505 22.8244 7.90476 23.5 7.40541Z" fill="#4CAF50"/>
</svg>
