<svg width="20" height="20" viewBox="0 0 20 20" fill="none" xmlns="http://www.w3.org/2000/svg">
<g clip-path="url(#clip0)">
<path d="M19.1303 0.00012207H6.08688C5.72672 0.00012207 5.43469 0.292113 5.43469 0.652306V14.1305C5.43469 14.4906 5.72668 14.7827 6.08688 14.7827H19.1303C19.4904 14.7827 19.7825 14.4907 19.7825 14.1305V0.652267C19.7825 0.292113 19.4905 0.00012207 19.1303 0.00012207ZM18.4781 5.21747H16.5216C16.1615 5.21747 15.8694 5.50946 15.8694 5.86966C15.8694 6.22985 16.1614 6.52184 16.5216 6.52184H18.4781V13.4783H10.2173V11.5218C10.2173 11.1617 9.92529 10.8696 9.5651 10.8696C9.2049 10.8696 8.91291 11.1616 8.91291 11.5218V13.4783H6.73902V1.30445H8.91291V8.47832C8.91291 8.83847 9.2049 9.1305 9.5651 9.1305C9.92529 9.1305 10.2173 8.83851 10.2173 8.47832V6.5218H13.4781C13.8383 6.5218 14.1303 6.22981 14.1303 5.86962C14.1303 5.50943 13.8383 5.21744 13.4781 5.21744H10.2173V1.30445H18.4781V5.21747H18.4781Z" fill="white"/>
<path d="M19.5913 17.5822L18.2871 16.2779C18.0325 16.0232 17.6195 16.0232 17.3648 16.2779C17.1101 16.5326 17.1101 16.9455 17.3648 17.2002L17.5558 17.3913H5.05268L5.24369 17.2002C5.49838 16.9456 5.49838 16.5327 5.24373 16.278C4.98908 16.0233 4.57612 16.0233 4.32143 16.278L3.01722 17.5822C2.76078 17.8384 2.76519 18.253 3.01722 18.5048L4.32143 19.809C4.57608 20.0637 4.98904 20.0638 5.24373 19.809C5.49842 19.5543 5.49842 19.1414 5.24373 18.8867L5.05268 18.6956H17.5558L17.3648 18.8867C17.1101 19.1414 17.1101 19.5543 17.3648 19.809C17.6194 20.0637 18.0324 20.0637 18.2871 19.809L19.5913 18.5047C19.8456 18.2507 19.8451 17.8356 19.5913 17.5822Z" fill="white"/>
<path d="M3.01713 13.6693L2.82608 13.8603V2.22667L3.01713 2.41768C3.27178 2.67237 3.68475 2.67241 3.93943 2.41768C4.19412 2.16303 4.19416 1.75007 3.93943 1.49538L2.63506 0.191014C2.38042 -0.0636715 1.96745 -0.0636715 1.71276 0.191014L0.408436 1.49534C0.15375 1.74999 0.153711 2.16296 0.408436 2.41764C0.663083 2.67233 1.07605 2.67233 1.33074 2.41764L1.52175 2.22663V13.8602L1.33074 13.6692C1.07609 13.4145 0.663122 13.4145 0.408436 13.6692C0.15375 13.9238 0.153711 14.3368 0.408436 14.5915L1.71276 15.8958C1.96741 16.1505 2.38038 16.1505 2.63506 15.8958L3.93939 14.5915C4.19408 14.3368 4.19412 13.9239 3.93939 13.6692C3.68478 13.4146 3.27182 13.4146 3.01713 13.6693Z" fill="white"/>
</g>
<defs>
<clipPath id="clip0">
<rect width="20" height="20" fill="white"/>
</clipPath>
</defs>
</svg>
