<svg width="20" height="20" viewBox="0 0 20 20" fill="none" xmlns="http://www.w3.org/2000/svg">
<path d="M17.6562 1.95312H2.34375C1.05141 1.95312 0 3.00453 0 4.29688V15.7031C0 16.9955 1.05141 18.0469 2.34375 18.0469H17.6562C18.9486 18.0469 20 16.9955 20 15.7031V4.29688C20 3.00453 18.9486 1.95312 17.6562 1.95312ZM6.09375 16.4844H2.34375C1.91297 16.4844 1.5625 16.1339 1.5625 15.7031V13.2812H6.09375V16.4844ZM6.09375 11.7188H1.5625V8.28125H6.09375V11.7188ZM6.09375 6.71875H1.5625V4.29688C1.5625 3.86609 1.91297 3.51562 2.34375 3.51562H6.09375V6.71875ZM12.3828 16.4844H7.65625V13.2812H12.3828V16.4844ZM12.3828 11.7188H7.65625V8.28125H12.3828V11.7188ZM12.3828 6.71875H7.65625V3.51562H12.3828V6.71875ZM18.4375 15.7031C18.4375 16.1339 18.087 16.4844 17.6562 16.4844H13.9453V13.2812H18.4375V15.7031ZM18.4375 11.7188H13.9453V8.28125H18.4375V11.7188ZM18.4375 6.71875H13.9453V3.51562H17.6562C18.087 3.51562 18.4375 3.86609 18.4375 4.29688V6.71875Z" fill="white"/>
</svg>
